<svg data-logo="logo" xmlns="http://www.w3.org/2000/svg" viewBox="0 0 49 41">
        <g id="logogram" transform="translate(0, 0) rotate(0)" style="opacity: 1;"><path d="M24.2071 0.429993L28.9214 4.35857L24.8473 7.75366C24.4764 8.0627 23.9378 8.0627 23.5669 7.75366L19.4928 4.35857L24.2071 0.429993Z" fill="#050505"></path><path fill-rule="evenodd" clip-rule="evenodd" d="M23.5669 11.7844C23.9378 12.0935 24.4764 12.0935 24.8473 11.7844L31.3398 6.37397L35.0743 9.48605L26.7678 16.4081C25.2845 17.6443 23.1297 17.6443 21.6463 16.4081L13.3399 9.48605L17.0744 6.37397L23.5669 11.7844Z" fill="#050505"></path><path d="M24.2071 40.43L19.4928 36.5014L23.5669 33.1063C23.9378 32.7973 24.4764 32.7973 24.8473 33.1063L28.9214 36.5014L24.2071 40.43Z" fill="#050505"></path><path fill-rule="evenodd" clip-rule="evenodd" d="M24.8473 29.0755C24.4764 28.7665 23.9378 28.7665 23.5669 29.0755L17.0744 34.486L13.3399 31.3739L21.6463 24.4518C23.1297 23.2157 25.2845 23.2157 26.7678 24.4518L35.0743 31.3739L31.3398 34.486L24.8473 29.0755Z" fill="#050505"></path><path d="M48.207 20.43L43.4928 16.5014L39.7004 19.6618C39.2206 20.0616 39.2206 20.7984 39.7004 21.1982L43.4928 24.3586L48.207 20.43Z" fill="#050505"></path><path fill-rule="evenodd" clip-rule="evenodd" d="M34.8634 21.1982C34.3837 20.7984 34.3837 20.0616 34.8634 19.6618L41.0743 14.486L37.3398 11.3739L30.16 17.3571C28.241 18.9563 28.241 21.9037 30.16 23.5029L37.3398 29.4861L41.0743 26.374L34.8634 21.1982Z" fill="#050505"></path><path d="M0.207031 20.4301L4.9213 24.3587L8.71371 21.1983C9.19346 20.7985 9.19346 20.0617 8.71371 19.6619L4.9213 16.5015L0.207031 20.4301Z" fill="#050505"></path><path fill-rule="evenodd" clip-rule="evenodd" d="M13.5506 19.6619C14.0304 20.0617 14.0304 20.7985 13.5506 21.1983L7.33976 26.3741L11.0742 29.4862L18.254 23.503C20.173 21.9038 20.173 18.9564 18.254 17.3572L11.0742 11.374L7.33976 14.4861L13.5506 19.6619Z" fill="#050505"></path></g>
        <g id="logotype" transform="translate(49, 20.5)" style="opacity: 1;"></g>
        
      </svg>